#!OML:ASF F:\VICON\USERDATA\INSTALL\rory3\rory3.ASF
:FULLY-SPECIFIED
:DEGREES
1372
root -0.0220679 17.255 0.507758 5.76924 1.67649 -1.46477
lowerback -2.8632 -1.0016 -1.04187
upperback -5.21368 -1.26657 2.35349
thorax -3.6921 -0.543667 3.01818
lowerneck -8.63602 -11.652 -21.0145
upperneck 37.4607 -17.9162 12.1031
head 19.0549 -9.10905 5.68021
rclavicle -2.26118e-014 2.90226e-014
rhumerus -375.214 -38.0683 -428.488
rradius 122.795
rwrist -53.7975
rhand -40.2046 -9.63123
rfingers 7.12502
rthumb -13.165 -39.1956
lclavicle -2.26118e-014 2.90226e-014
lhumerus 211.883 -69.8603 -166.068
lradius 99.9875
lwrist -5.38781
lhand -17.6576 3.83522
lfingers 7.12502
lthumb 8.60073 33.64
rfemur -9.05475 9.79157 19.7972
rtibia 20.238
rfoot -15.5677 -10.1827
rtoes -10.1331
lfemur -13.5532 -11.2999 -14.5681
ltibia 25.6836
lfoot -17.1114 4.85912
ltoes -18.3877
1373
root -0.0420338 17.2558 0.502423 5.86096 1.51255 -1.5841
lowerback -2.90253 -0.910283 -1.18328
upperback -5.25995 -1.15231 2.04297
thorax -3.72784 -0.486974 2.77567
lowerneck -8.52421 -11.6646 -21.0848
upperneck 37.4658 -17.9326 12.0896
head 19.0426 -9.13684 5.68456
rclavicle 6.78353e-015 -2.38542e-015
rhumerus -374.968 -38.1879 -428.195
rradius 122.567
rwrist -53.436
rhand -40.3862 -8.03023
rfingers 7.12502
rthumb -13.3401 -37.5832
lclavicle 6.78353e-015 -2.38542e-015
lhumerus 211.636 -69.7359 -166.019
lradius 100.136
lwrist -5.09531
lhand -17.543 3.81143
lfingers 7.12502
lthumb 8.71132 33.6117
rfemur -9.12372 9.60061 19.9353
rtibia 20.0254
rfoot -15.4539 -9.80993
rtoes -10.3165
lfemur -13.7361 -11.2995 -14.3671
ltibia 25.8769
lfoot -17.2657 5.00024
ltoes -18.0096
1374
root -0.060478 17.256 0.498964 5.87086 1.31606 -1.80531
lowerback -2.89803 -0.840253 -1.23417
upperback -5.28694 -1.06513 1.8111
thorax -3.76624 -0.445788 2.56449
lowerneck -8.48765 -11.6418 -21.1288
upperneck 37.5576 -17.8328 11.9326
head 19.0422 -9.12656 5.64251
rclavicle 6.95746e-016 3.18055e-015
rhumerus -374.654 -38.1028 -427.915
rradius 122.546
rwrist -53.1044
rhand -40.2729 -7.86573
rfingers 7.12502
rthumb -13.2308 -37.4258
lclavicle 6.95746e-016 3.18055e-015
lhumerus 211.788 -69.6397 -166.336
lradius 100.271
lwrist -4.90564
lhand -17.2393 3.7906
lfingers 7.12502
lthumb 9.00444 33.5784
rfemur -9.10092 9.44115 20.1914
rtibia 19.8211
rfoot -15.3565 -9.41576
rtoes -10.0396
lfemur -13.7789 -11.3116 -14.0749
ltibia 26.0118
lfoot -17.4052 5.20276
ltoes -17.6755
1375
root -0.0747675 17.2558 0.494472 5.89723 1.15446 -2.07564
lowerback -2.87657 -0.806956 -1.19539
upperback -5.32127 -1.02556 1.64742
thorax -3.81924 -0.430227 2.3741
lowerneck -8.50343 -11.6074 -21.195
upperneck 37.651 -17.6449 11.6597
head 19.016 -9.09224 5.56431
rclavicle 3.51228e-014 5.96354e-016
rhumerus -374.206 -37.9666 -427.665
rradius 122.726
rwrist -52.9683
rhand -40.2583 -8.08535
rfingers 7.12502
rthumb -13.2168 -37.6464
lclavicle 3.51228e-014 5.96354e-016
lhumerus 212.329 -69.578 -167.009
lradius 100.356
lwrist -4.78261
lhand -17.3405 4.03849
lfingers 7.12502
lthumb 8.90677 33.8305
rfemur -9.06421 9.17166 20.4846
rtibia 19.5587
rfoot -15.258 -8.89546
rtoes -9.68616
lfemur -13.8441 -11.3326 -13.7326
ltibia 26.129
lfoot -17.4668 5.46229
ltoes -18.4214
1376
root -0.0881885 17.2566 0.489033 5.96308 1.02778 -2.30931
lowerback -2.85864 -0.760532 -1.16187
upperback -5.32764 -0.968283 1.49511
thorax -3.8414 -0.405968 2.19794
lowerneck -8.74201 -11.6416 -21.2431
upperneck 37.8071 -17.4898 11.2945
head 19.0809 -9.06689 5.4194
rclavicle -2.04562e-014 5.91384e-015
rhumerus -373.544 -37.8382 -427.496
rradius 122.858
rwrist -52.647
rhand -40.6418 -7.46858
rfingers 7.12502
rthumb -13.5864 -37.0053
lclavicle -2.04562e-014 5.91384e-015
lhumerus 212.394 -69.6124 -167.17
lradius 100.457
lwrist -4.55432
lhand -17.6571 4.29143
lfingers 7.12502
lthumb 8.60122 34.0962
rfemur -9.04023 8.8608 20.7366
rtibia 19.2492
rfoot -15.0568 -8.45136
rtoes -10.012
lfemur -13.9629 -11.3751 -13.4241
ltibia 26.2492
lfoot -17.6016 5.74763
ltoes -19.0369
1377
root -0.102227 17.2585 0.48421 6.01241 0.855174 -2.6142
lowerback -2.83071 -0.699344 -1.07556
upperback -5.38624 -0.889351 1.40738
thorax -3.92423 -0.370588 2.05967
lowerneck -8.89108 -11.6326 -21.2816
upperneck 38.0143 -17.2506 10.831
head 19.1146 -9.02305 5.25187
rclavicle 1.27533e-014 -9.39258e-015
rhumerus -373.103 -37.5102 -427.223
rradius 122.853
rwrist -52.076
rhand -40.766 -6.30955
rfingers 7.12502
rthumb -13.7061 -35.8382
lclavicle 1.27533e-014 -9.39258e-015
lhumerus 213.258 -69.6175 -168.119
lradius 100.473
lwrist -4.50363
lhand -17.6883 4.40786
lfingers 7.12502
lthumb 8.57118 34.2139
rfemur -8.96873 8.66224 21.072
rtibia 18.8976
rfoot -14.8982 -7.99016
rtoes -10.1347
lfemur -14.0612 -11.4097 -13.0375
ltibia 26.3741
lfoot -17.7859 5.96129
ltoes -18.8652
1378
root -0.112295 17.2614 0.480855 6.07014 0.661025 -2.8311
lowerback -2.84717 -0.630211 -1.03483
upperback -5.51056 -0.799206 1.31974
thorax -4.05035 -0.32712 1.94702
lowerneck -8.82239 -11.5788 -21.3001
upperneck 38.2453 -16.9598 10.2833
head 19.0774 -8.97669 5.06453
rclavicle 3.50358e-015 4.87022e-015
rhumerus -373.048 -37.0294 -426.739
rradius 122.928
rwrist -51.7097
rhand -40.7311 -5.42472
rfingers 7.12502
rthumb -13.6725 -34.9556
lclavicle 3.50358e-015 4.87022e-015
lhumerus 214.297 -69.5609 -169.194
lradius 100.412
lwrist -4.50034
lhand -17.7797 4.43039
lfingers 7.12502
lthumb 8.48293 34.24
rfemur -8.89934 8.50827 21.2884
rtibia 18.5382
rfoot -14.83 -7.51527
rtoes -9.84575
lfemur -14.13 -11.417 -12.7662
ltibia 26.4637
lfoot -17.8682 6.16861
ltoes -18.8058
1379
root -0.118034 17.2624 0.480969 6.12898 0.483567 -3.06514
lowerback -2.94953 -0.545244 -0.909515
upperback -5.57383 -0.687537 1.24593
thorax -4.06524 -0.277572 1.7992
lowerneck -8.91903 -11.5459 -21.104
upperneck 38.5259 -16.6885 9.6513
head 19.0775 -8.90988 4.79051
rclavicle 1.2424e-016 -2.5842e-015
rhumerus -372.974 -36.6086 -426.284
rradius 123.047
rwrist -51.4828
rhand -40.7303 -4.97456
rfingers 7.12502
rthumb -13.6717 -34.5055
lclavicle 1.2424e-016 -2.5842e-015
lhumerus 214.62 -69.6455 -169.494
lradius 100.344
lwrist -4.43537
lhand -17.7784 4.36264
lfingers 7.12502
lthumb 8.48417 34.1722
rfemur -8.8111 8.33564 21.5178
rtibia 18.1721
rfoot -14.676 -7.18052
rtoes -10.2294
lfemur -14.1613 -11.4556 -12.4952
ltibia 26.514
lfoot -17.9555 6.35224
ltoes -18.6449
1380
root -0.121249 17.2653 0.483078 6.1347 0.323892 -3.17403
lowerback -3.03191 -0.467391 -0.874847
upperback -5.56292 -0.585829 1.16752
thorax -4.01206 -0.230472 1.69723
lowerneck -9.1894 -11.5274 -20.7284
upperneck 38.7391 -16.4291 9.00293
head 19.0591 -8.81451 4.46685
rclavicle -1.73191e-014 1.31198e-014
rhumerus -372.766 -36.2744 -425.974
rradius 123.163
rwrist -51.0591
rhand -40.5048 -4.84032
rfingers 7.12502
rthumb -13.4544 -34.3858
lclavicle -1.73191e-014 1.31198e-014
lhumerus 215.366 -69.8831 -170.21
lradius 100.252
lwrist -4.4839
lhand -17.5475 4.20233
lfingers 7.12502
lthumb 8.70702 34.0028
rfemur -8.66516 8.16568 21.6163
rtibia 17.8479
rfoot -14.5801 -6.83895
rtoes -10.8587
lfemur -14.0924 -11.5468 -12.3899
ltibia 26.4997
lfoot -17.9956 6.52929
ltoes -17.9635
1381
root -0.123098 17.2681 0.4855 6.11224 0.235561 -3.19338
lowerback -3.06628 -0.440696 -0.938194
upperback -5.57921 -0.551081 1.12537
thorax -4.01085 -0.211452 1.68887
lowerneck -9.43747 -11.4826 -20.4172
upperneck 38.9618 -16.1566 8.43621
head 19.0656 -8.71783 4.19927
rclavicle -1.5207e-014 5.56597e-015
rhumerus -372.664 -35.8515 -425.723
rradius 123.397
rwrist -50.7077
rhand -40.2911 -5.07155
rfingers 7.12502
rthumb -13.2483 -34.6305
lclavicle -1.5207e-014 5.56597e-015
lhumerus 216.361 -70.0149 -171.184
lradius 100.208
lwrist -4.56794
lhand -17.5446 4.18109
lfingers 7.12502
lthumb 8.7098 33.9814
rfemur -8.46915 8.05977 21.6192
rtibia 17.5286
rfoot -14.561 -6.53745
rtoes -10.9524
lfemur -13.9877 -11.6459 -12.3978
ltibia 26.4464
lfoot -17.9226 6.77138
ltoes -18.0915
